# xmcd
#
# Track frame offsets: 
#        150
#        577
#        20352
#        31182
#        44815
#        56922
#        77530
#        92045
#        112975
#        134167
#        148532
#        174170
#        194977
#        215595
#        232397
#        253172
#        276490
#
# Disc length: 3922 seconds
#
# Revision: 0
# Processed by: cddbd v1.5.1PL0 Copyright (c) Steve Scherf et al.
# Submitted via: ExactAudioCopy v0.95a5
#
DISCID=040f5011
DTITLE=Sleepy John Estes - Newport Blues
DYEAR=1964
DGENRE=Blues
TTITLE0=Intro
TTITLE1=Special Agent
TTITLE2=Wadie Green Blues
TTITLE3=Airplane Blues
TTITLE4=Up and Down
TTITLE5=Need More Blues
TTITLE6=Newport Blues
TTITLE7=B K Blues
TTITLE8=80 Highway
TTITLE9=Mary Come on Home
TTITLE10=NYC Breakdown
TTITLE11=City Hall Blues
TTITLE12=Worried Mind Blues
TTITLE13=I Want to Tear It All the Time
TTITLE14=Goverment Money
TTITLE15=Poor Mothers Child
TTITLE16=New Doorbell Blues
EXTD=
EXTT0=
EXTT1=
EXTT2=
EXTT3=
EXTT4=
EXTT5=
EXTT6=
EXTT7=
EXTT8=
EXTT9=
EXTT10=
EXTT11=
EXTT12=
EXTT13=
EXTT14=
EXTT15=
EXTT16=
PLAYORDER=
